<svg width="15" height="16" viewBox="0 0 15 16" fill="none" xmlns="http://www.w3.org/2000/svg">
<path fill-rule="evenodd" clip-rule="evenodd" d="M2 5.25C2 4.97386 2.22386 4.75 2.5 4.75H12.5C12.7761 4.75 13 4.97386 13 5.25C13 5.52614 12.7761 5.75 12.5 5.75H2.5C2.22386 5.75 2 5.52614 2 5.25ZM2 8.25C2 7.97386 2.22386 7.75 2.5 7.75H7.5C7.77614 7.75 8 7.97386 8 8.25C8 8.52614 7.77614 8.75 7.5 8.75H2.5C2.22386 8.75 2 8.52614 2 8.25ZM2 11.25C2 10.9739 2.22386 10.75 2.5 10.75H10.5C10.7761 10.75 11 10.9739 11 11.25C11 11.5261 10.7761 11.75 10.5 11.75H2.5C2.22386 11.75 2 11.5261 2 11.25Z" fill="black"/>
</svg>
