<svg width="15" height="16" viewBox="0 0 15 16" fill="none" xmlns="http://www.w3.org/2000/svg">
<path fill-rule="evenodd" clip-rule="evenodd" d="M2 5.25C2 4.97386 2.22386 4.75 2.5 4.75H12.5C12.7761 4.75 13 4.97386 13 5.25C13 5.52614 12.7761 5.75 12.5 5.75H2.5C2.22386 5.75 2 5.52614 2 5.25ZM7 8.25C7 7.97386 7.22386 7.75 7.5 7.75H12.5C12.7761 7.75 13 7.97386 13 8.25C13 8.52614 12.7761 8.75 12.5 8.75H7.5C7.22386 8.75 7 8.52614 7 8.25ZM4 11.25C4 10.9739 4.22386 10.75 4.5 10.75H12.5C12.7761 10.75 13 10.9739 13 11.25C13 11.5261 12.7761 11.75 12.5 11.75H4.5C4.22386 11.75 4 11.5261 4 11.25Z" fill="black"/>
</svg>
