<svg width="15" height="16" viewBox="0 0 15 16" fill="none" xmlns="http://www.w3.org/2000/svg">
<path fill-rule="evenodd" clip-rule="evenodd" d="M2 5.25C2 4.97386 2.22386 4.75 2.5 4.75H12.5C12.7761 4.75 13 4.97386 13 5.25C13 5.52614 12.7761 5.75 12.5 5.75H2.5C2.22386 5.75 2 5.52614 2 5.25ZM4 8.25C4 7.97386 4.22386 7.75 4.5 7.75H10.5C10.7761 7.75 11 7.97386 11 8.25C11 8.52614 10.7761 8.75 10.5 8.75H4.5C4.22386 8.75 4 8.52614 4 8.25ZM3 11.25C3 10.9739 3.22386 10.75 3.5 10.75H11.5C11.7761 10.75 12 10.9739 12 11.25C12 11.5261 11.7761 11.75 11.5 11.75H3.5C3.22386 11.75 3 11.5261 3 11.25Z" fill="black"/>
</svg>
