<svg width="15" height="15" viewBox="0 0 15 15" fill="none" xmlns="http://www.w3.org/2000/svg">
<path d="M10.71 10.1902C10.71 11.0892 10.3999 11.8543 9.77977 12.4853C9.15959 13.1164 8.40091 13.4319 7.50373 13.4319C6.59383 13.4319 5.83066 13.1028 5.21422 12.4445C4.59777 11.7863 4.28955 10.9955 4.28955 10.0723V3.86877C4.28955 3.2302 4.5099 2.68708 4.9506 2.2394C5.3913 1.79172 5.92949 1.56787 6.56517 1.56787C7.21089 1.56787 7.75073 1.80672 8.1847 2.2844C8.61868 2.76209 8.83567 3.32944 8.83567 3.98645V9.80696C8.83567 10.1774 8.70746 10.4945 8.45103 10.7585C8.19461 11.0224 7.88043 11.1544 7.50848 11.1544C7.12705 11.1544 6.80813 11.017 6.55172 10.7424C6.29531 10.4678 6.1671 10.1337 6.1671 9.74029V3.85055H6.96643V9.80696C6.96643 9.95883 7.01783 10.0881 7.12062 10.1949C7.22341 10.3017 7.35089 10.355 7.50307 10.355C7.65618 10.355 7.78333 10.3021 7.88453 10.1962C7.98573 10.0903 8.03633 9.96059 8.03633 9.80696V3.86337C8.04402 3.44884 7.90381 3.09584 7.6157 2.80439C7.3276 2.51293 6.97631 2.3672 6.56182 2.3672C6.1494 2.3672 5.8008 2.51956 5.51603 2.82427C5.23127 3.12897 5.08888 3.48859 5.08888 3.90312V10.1876C5.09657 10.8633 5.33268 11.437 5.79722 11.9086C6.26175 12.3801 6.8316 12.6215 7.50677 12.6326C8.18182 12.6437 8.75562 12.3996 9.22817 11.9002C9.7007 11.4009 9.92821 10.8027 9.91068 10.1057V3.85055H10.71V10.1902Z" fill="black"/>
</svg>
