<svg width="15" height="15" viewBox="0 0 15 15" fill="none" xmlns="http://www.w3.org/2000/svg">
<path d="M4.24414 11.8637V3.13647H7.58505C8.21573 3.13647 8.73988 3.23591 9.15749 3.43477C9.57795 3.63079 9.89187 3.89926 10.0993 4.24017C10.3095 4.58108 10.4146 4.96744 10.4146 5.39926C10.4146 5.75437 10.3464 6.05835 10.2101 6.31119C10.0737 6.56119 9.89045 6.76432 9.66033 6.92057C9.43022 7.07682 9.17312 7.18903 8.88903 7.25721V7.34244C9.19869 7.35949 9.49556 7.45466 9.77965 7.62795C10.0666 7.79841 10.301 8.03988 10.4828 8.35238C10.6646 8.66488 10.7555 9.04272 10.7555 9.48591C10.7555 9.93761 10.6461 10.3439 10.4274 10.7047C10.2086 11.0626 9.87908 11.3453 9.43874 11.5527C8.9984 11.7601 8.44442 11.8637 7.77681 11.8637H4.24414ZM5.82511 10.5427H7.52539C8.09925 10.5427 8.51261 10.4333 8.76545 10.2146C9.02113 9.99301 9.14897 9.70892 9.14897 9.36233C9.14897 9.1038 9.08505 8.87085 8.95721 8.66346C8.82937 8.45324 8.64755 8.28846 8.41175 8.16915C8.17596 8.04699 7.89471 7.98591 7.568 7.98591H5.82511V10.5427ZM5.82511 6.84812H7.38903C7.66175 6.84812 7.90749 6.79841 8.12624 6.69897C8.34499 6.5967 8.51687 6.45324 8.64187 6.26858C8.76971 6.08108 8.83363 5.85949 8.83363 5.6038C8.83363 5.26574 8.71431 4.98733 8.47568 4.76858C8.23988 4.54983 7.88903 4.44045 7.42312 4.44045H5.82511V6.84812Z" fill="black"/>
</svg>
