<svg width="15" height="16" viewBox="0 0 15 16" fill="none" xmlns="http://www.w3.org/2000/svg">
<path fill-rule="evenodd" clip-rule="evenodd" d="M1.5 6C1.91421 6 2.25 5.66421 2.25 5.25C2.25 4.83579 1.91421 4.5 1.5 4.5C1.08579 4.5 0.75 4.83579 0.75 5.25C0.75 5.66421 1.08579 6 1.5 6ZM4.52051 5.25C4.52051 4.97386 4.74437 4.75 5.02051 4.75H13.5C13.7761 4.75 14 4.97386 14 5.25C14 5.52614 13.7761 5.75 13.5 5.75H5.02051C4.74437 5.75 4.52051 5.52614 4.52051 5.25ZM5.02051 7.75C4.74437 7.75 4.52051 7.97386 4.52051 8.25C4.52051 8.52614 4.74437 8.75 5.02051 8.75H13.5C13.7761 8.75 14 8.52614 14 8.25C14 7.97386 13.7761 7.75 13.5 7.75H5.02051ZM5.02051 10.75C4.74437 10.75 4.52051 10.9739 4.52051 11.25C4.52051 11.5261 4.74437 11.75 5.02051 11.75H13.5C13.7761 11.75 14 11.5261 14 11.25C14 10.9739 13.7761 10.75 13.5 10.75H5.02051ZM2.25 8.25C2.25 8.66421 1.91421 9 1.5 9C1.08579 9 0.75 8.66421 0.75 8.25C0.75 7.83579 1.08579 7.5 1.5 7.5C1.91421 7.5 2.25 7.83579 2.25 8.25ZM1.5 12C1.91421 12 2.25 11.6642 2.25 11.25C2.25 10.8358 1.91421 10.5 1.5 10.5C1.08579 10.5 0.75 10.8358 0.75 11.25C0.75 11.6642 1.08579 12 1.5 12Z" fill="black"/>
</svg>
