<svg width="15" height="16" viewBox="0 0 15 16" fill="none" xmlns="http://www.w3.org/2000/svg">
<path fill-rule="evenodd" clip-rule="evenodd" d="M9.96424 3.43558C10.0668 3.17919 9.94209 2.88821 9.6857 2.78565C9.4293 2.68309 9.13832 2.8078 9.03576 3.06419L5.03576 13.0642C4.9332 13.3206 5.05791 13.6116 5.3143 13.7141C5.5707 13.8167 5.86168 13.692 5.96424 13.4356L9.96424 3.43558ZM3.85355 5.89634C4.04882 6.0916 4.04882 6.40818 3.85355 6.60344L2.20711 8.24989L3.85355 9.89634C4.04882 10.0916 4.04882 10.4082 3.85355 10.6034C3.65829 10.7987 3.34171 10.7987 3.14645 10.6034L1.14645 8.60344C0.951184 8.40818 0.951184 8.0916 1.14645 7.89634L3.14645 5.89634C3.34171 5.70107 3.65829 5.70107 3.85355 5.89634ZM11.1464 5.89634C11.3417 5.70107 11.6583 5.70107 11.8536 5.89634L13.8536 7.89634C14.0488 8.0916 14.0488 8.40818 13.8536 8.60344L11.8536 10.6034C11.6583 10.7987 11.3417 10.7987 11.1464 10.6034C10.9512 10.4082 10.9512 10.0916 11.1464 9.89634L12.7929 8.24989L11.1464 6.60344C10.9512 6.40818 10.9512 6.0916 11.1464 5.89634Z" fill="black"/>
</svg>
