<svg width="15" height="16" viewBox="0 0 15 16" fill="none" xmlns="http://www.w3.org/2000/svg">
<path fill-rule="evenodd" clip-rule="evenodd" d="M5.67482 4.25029C5.67482 4.00176 5.87629 3.80029 6.12482 3.80029H10.6248C10.8733 3.80029 11.0748 4.00176 11.0748 4.25029C11.0748 4.49882 10.8733 4.70029 10.6248 4.70029H9.00575L7.23078 11.8002H8.8748C9.12333 11.8002 9.3248 12.0016 9.3248 12.2502C9.3248 12.4987 9.12333 12.7002 8.8748 12.7002H4.3748C4.12628 12.7002 3.9248 12.4987 3.9248 12.2502C3.9248 12.0016 4.12628 11.8002 4.3748 11.8002H5.99385L7.76882 4.70029H6.12482C5.87629 4.70029 5.67482 4.49882 5.67482 4.25029Z" fill="black"/>
</svg>
