<svg width="16" height="16" viewBox="0 0 16 16" fill="none" xmlns="http://www.w3.org/2000/svg">
<path fill-rule="evenodd" clip-rule="evenodd" d="M8.58628 3.75544C9.26263 3.29597 10.1178 3.28697 10.7531 3.70422C10.8974 3.79896 11.0515 3.94933 11.4634 4.36122C11.8753 4.7731 12.0256 4.92717 12.1204 5.07144C12.5376 5.70678 12.5286 6.56195 12.0691 7.2383C11.9643 7.39267 11.802 7.55814 11.375 7.98514L10.7563 8.60386C10.561 8.79912 10.561 9.1157 10.7563 9.31096C10.9515 9.50623 11.2681 9.50623 11.4634 9.31096L12.0821 8.69225L12.125 8.64932C12.4947 8.27979 12.7312 8.04333 12.8963 7.80023C13.5716 6.80626 13.6064 5.51255 12.9562 4.52251C12.7977 4.28105 12.5666 4.05004 12.2151 3.69874L12.1705 3.65411L12.1258 3.60946C11.7745 3.25803 11.5435 3.02692 11.3021 2.86835C10.312 2.21816 9.01833 2.25302 8.02435 2.92825C7.78125 3.09339 7.54478 3.32994 7.17524 3.69958L7.13234 3.7425L6.51362 4.36122C6.31836 4.55648 6.31836 4.87306 6.51362 5.06832C6.70888 5.26359 7.02546 5.26359 7.22072 5.06832L7.83944 4.4496C8.26644 4.0226 8.43191 3.8603 8.58628 3.75544ZM4.3923 7.89675C4.58756 7.70149 4.58756 7.38491 4.3923 7.18964C4.19704 6.99438 3.88045 6.99438 3.68519 7.18964L3.06647 7.80836L3.02356 7.85127C2.65391 8.2208 2.41737 8.45727 2.25222 8.70038C1.57699 9.69435 1.54214 10.9881 2.19233 11.9781C2.3509 12.2196 2.582 12.4506 2.93344 12.8019L2.97808 12.8465L3.02271 12.8911C3.37401 13.2426 3.60502 13.4737 3.84648 13.6323C4.83653 14.2824 6.13023 14.2476 7.12421 13.5724C7.3673 13.4072 7.60377 13.1707 7.9733 12.801L7.97331 12.801L8.01622 12.7581L8.63494 12.1394C8.8302 11.9441 8.8302 11.6275 8.63494 11.4323C8.43968 11.237 8.12309 11.237 7.92783 11.4323L7.30911 12.051C6.88211 12.478 6.71664 12.6403 6.56228 12.7452C5.88592 13.2046 5.03076 13.2136 4.39541 12.7964C4.25115 12.7016 4.09708 12.5513 3.68519 12.1394C3.2733 11.7275 3.12294 11.5734 3.02819 11.4292C2.61095 10.7938 2.61995 9.93866 3.07941 9.2623C3.18428 9.10794 3.34658 8.94247 3.77358 8.51547L4.3923 7.89675ZM9.69606 6.83561C9.89132 6.64035 9.89132 6.32376 9.69606 6.1285C9.5008 5.93324 9.18422 5.93324 8.98896 6.1285L5.45342 9.66404C5.25816 9.8593 5.25816 10.1759 5.45342 10.3711C5.64868 10.5664 5.96527 10.5664 6.16053 10.3711L9.69606 6.83561Z" fill="black"/>
</svg>
