<svg width="16" height="16" viewBox="0 0 16 16" fill="none" xmlns="http://www.w3.org/2000/svg">
<path fill-rule="evenodd" clip-rule="evenodd" d="M2.64844 4.75C2.3723 4.75 2.14844 4.97386 2.14844 5.25C2.14844 5.52614 2.3723 5.75 2.64844 5.75H12.6484C12.9246 5.75 13.1484 5.52614 13.1484 5.25C13.1484 4.97386 12.9246 4.75 12.6484 4.75H2.64844ZM5.82324 8.25C5.82324 7.97386 6.0471 7.75 6.32324 7.75L12.6484 7.75C12.9246 7.75 13.1484 7.97386 13.1484 8.25C13.1484 8.52614 12.9246 8.75 12.6484 8.75L6.32324 8.75C6.0471 8.75 5.82324 8.52614 5.82324 8.25ZM2.14844 11.25C2.14844 10.9739 2.3723 10.75 2.64844 10.75H12.6484C12.9246 10.75 13.1484 10.9739 13.1484 11.25C13.1484 11.5261 12.9246 11.75 12.6484 11.75H2.64844C2.3723 11.75 2.14844 11.5261 2.14844 11.25Z" fill="black"/>
<path d="M4.70654 9.67554V7.16406L2.62368 8.26659L4.70654 9.67554Z" fill="black"/>
</svg>
