<svg width="16" height="15" viewBox="0 0 16 15" fill="none" xmlns="http://www.w3.org/2000/svg">
<path fill-rule="evenodd" clip-rule="evenodd" d="M2.59277 4C2.31663 4 2.09277 4.22386 2.09277 4.5C2.09277 4.77614 2.31663 5 2.59277 5H12.5928C12.8689 5 13.0928 4.77614 13.0928 4.5C13.0928 4.22386 12.8689 4 12.5928 4H2.59277ZM5.76758 7.5C5.76758 7.22386 5.99144 7 6.26758 7L12.5928 7C12.8689 7 13.0928 7.22386 13.0928 7.5C13.0928 7.77614 12.8689 8 12.5928 8L6.26758 8C5.99144 8 5.76758 7.77614 5.76758 7.5ZM2.09277 10.5C2.09277 10.2239 2.31663 10 2.59277 10H12.5928C12.8689 10 13.0928 10.2239 13.0928 10.5C13.0928 10.7761 12.8689 11 12.5928 11H2.59277C2.31663 11 2.09277 10.7761 2.09277 10.5Z" fill="black"/>
<path d="M2.56787 8.92554V6.41406L4.65073 7.51659L2.56787 8.92554Z" fill="black"/>
</svg>
