<svg width="16" height="16" viewBox="0 0 16 16" fill="none" xmlns="http://www.w3.org/2000/svg">
<path fill-rule="evenodd" clip-rule="evenodd" d="M5.04199 4.75C4.76585 4.75 4.54199 4.97386 4.54199 5.25C4.54199 5.52614 4.76585 5.75 5.04199 5.75H13.5557C13.8318 5.75 14.0557 5.52614 14.0557 5.25C14.0557 4.97386 13.8318 4.75 13.5557 4.75H5.04199ZM4.54199 8.25C4.54199 7.97386 4.76585 7.75 5.04199 7.75H13.5557C13.8318 7.75 14.0557 7.97386 14.0557 8.25C14.0557 8.52614 13.8318 8.75 13.5557 8.75H5.04199C4.76585 8.75 4.54199 8.52614 4.54199 8.25ZM4.54199 11.25C4.54199 10.9739 4.76585 10.75 5.04199 10.75H13.5557C13.8318 10.75 14.0557 10.9739 14.0557 11.25C14.0557 11.5261 13.8318 11.75 13.5557 11.75H5.04199C4.76585 11.75 4.54199 11.5261 4.54199 11.25Z" fill="black"/>
<path d="M2.35613 3.96908V6.87817H1.56636V4.69636H1.54932L0.912953 5.07704V4.40658L1.62886 3.96908H2.35613Z" fill="black"/>
<path d="M0.929998 12.4978V11.9296L2.01523 11.0319C2.0872 10.9722 2.14875 10.9164 2.19988 10.8643C2.25197 10.8112 2.29174 10.7568 2.3192 10.7009C2.34761 10.6451 2.36182 10.583 2.36182 10.5148C2.36182 10.44 2.34572 10.3761 2.31352 10.3231C2.28227 10.2701 2.23871 10.2293 2.18284 10.2009C2.12697 10.1716 2.06257 10.1569 1.98966 10.1569C1.91674 10.1569 1.85235 10.1716 1.79648 10.2009C1.74155 10.2303 1.69894 10.2734 1.66863 10.3302C1.63833 10.387 1.62318 10.4561 1.62318 10.5376H0.87318C0.87318 10.333 0.919108 10.1569 1.01096 10.0092C1.10282 9.86144 1.23256 9.7478 1.40017 9.66826C1.56778 9.58871 1.76428 9.54894 1.98966 9.54894C2.22261 9.54894 2.42432 9.58634 2.59477 9.66115C2.76617 9.73502 2.89827 9.83919 2.99108 9.97365C3.08483 10.1081 3.1317 10.2658 3.1317 10.4467C3.1317 10.5584 3.1085 10.6697 3.0621 10.7805C3.0157 10.8903 2.93237 11.012 2.8121 11.1455C2.69184 11.2791 2.52091 11.4381 2.29932 11.6228L2.02659 11.8501V11.8671H3.16295V12.4978H0.929998Z" fill="black"/>
</svg>
