<svg width="16" height="16" viewBox="0 0 16 16" fill="none" xmlns="http://www.w3.org/2000/svg">
<path fill-rule="evenodd" clip-rule="evenodd" d="M10.0549 4.19136C10.686 3.98654 11.4135 3.9902 12.0091 4.29623C13.3831 5.00224 13.9775 6.82191 13.4245 8.75C13.1764 9.6149 12.7401 10.4547 11.816 11.3024C10.8919 12.15 9.61022 12.65 9.01559 12.65C8.80257 12.65 8.62988 12.4821 8.62988 12.275C8.62988 12.0679 8.80632 11.9 9.01559 11.9C9.69486 11.9 10.3018 11.5304 11.0205 10.986C11.5705 10.5693 12 10.0363 12.2378 9.57191C12.6927 8.68367 12.7081 7.43174 11.9732 7.09901C11.6202 7.48455 11.1594 7.70946 10.6071 7.70946C9.40718 7.70946 8.69998 6.74412 8.73039 5.87009C8.75945 5.03474 9.29021 4.43954 10.0549 4.19136ZM4.05491 4.19136C4.68603 3.98654 5.41355 3.9902 6.00912 4.29623C7.38308 5.00224 7.97755 6.82191 7.4245 8.75C7.17642 9.6149 6.74007 10.4547 5.81598 11.3024C4.89189 12.15 3.61022 12.65 3.01559 12.65C2.80257 12.65 2.62988 12.4821 2.62988 12.275C2.62988 12.0679 2.80632 11.9 3.01559 11.9C3.69486 11.9 4.30177 11.5304 5.02046 10.986C5.57053 10.5693 6.00002 10.0363 6.23785 9.57191C6.6927 8.68367 6.70809 7.43174 5.97318 7.09901C5.62025 7.48455 5.15937 7.70946 4.60714 7.70946C3.40718 7.70946 2.69998 6.74412 2.73039 5.87009C2.75945 5.03474 3.29021 4.43954 4.05491 4.19136Z" fill="black"/>
</svg>
