<svg width="16" height="16" viewBox="0 0 16 16" fill="none" xmlns="http://www.w3.org/2000/svg">
<path fill-rule="evenodd" clip-rule="evenodd" d="M10.332 2.89645C10.1367 3.09171 10.1367 3.40829 10.332 3.60355L11.4784 4.75H6.18555C3.70027 4.75 1.68555 6.76472 1.68555 9.25C1.68555 11.7353 3.70027 13.75 6.18555 13.75H10.1855C10.4617 13.75 10.6855 13.5261 10.6855 13.25C10.6855 12.9739 10.4617 12.75 10.1855 12.75H6.18555C4.25255 12.75 2.68555 11.183 2.68555 9.25C2.68555 7.317 4.25255 5.75 6.18555 5.75H11.4784L10.332 6.89645C10.1367 7.09171 10.1367 7.40829 10.332 7.60355C10.5273 7.79882 10.8438 7.79882 11.0391 7.60355L13.0391 5.60355C13.2344 5.40829 13.2344 5.09171 13.0391 4.89645L11.0391 2.89645C10.8438 2.70118 10.5273 2.70118 10.332 2.89645Z" fill="black"/>
</svg>
