<svg width="16" height="16" viewBox="0 0 16 16" fill="none" xmlns="http://www.w3.org/2000/svg">
<path fill-rule="evenodd" clip-rule="evenodd" d="M9.49687 2.80029C9.24835 2.80029 9.04688 3.00176 9.04688 3.25029C9.04688 3.49882 9.24835 3.70029 9.49687 3.70029H10.6925V7.80013H5.79252V3.70029H6.99687C7.2454 3.70029 7.44687 3.49882 7.44687 3.25029C7.44687 3.00176 7.2454 2.80029 6.99687 2.80029H3.49687C3.24835 2.80029 3.04688 3.00176 3.04688 3.25029C3.04688 3.49882 3.24835 3.70029 3.49687 3.70029H4.69252V12.8003H3.49687C3.24835 12.8003 3.04688 13.0018 3.04688 13.2503C3.04688 13.4988 3.24835 13.7003 3.49687 13.7003H6.99687C7.2454 13.7003 7.44687 13.4988 7.44687 13.2503C7.44687 13.0018 7.2454 12.8003 6.99687 12.8003H5.79252V8.70013H10.6925V12.8003H9.49687C9.24835 12.8003 9.04688 13.0018 9.04688 13.2503C9.04688 13.4988 9.24835 13.7003 9.49687 13.7003H12.9969C13.2454 13.7003 13.4469 13.4988 13.4469 13.2503C13.4469 13.0018 13.2454 12.8003 12.9969 12.8003H11.7925V3.70029H12.9969C13.2454 3.70029 13.4469 3.49882 13.4469 3.25029C13.4469 3.00176 13.2454 2.80029 12.9969 2.80029H9.49687Z" fill="black"/>
</svg>
