<svg width="16" height="16" viewBox="0 0 16 16" fill="none" xmlns="http://www.w3.org/2000/svg">
<path fill-rule="evenodd" clip-rule="evenodd" d="M5.51871 4C5.51871 3.72386 5.29485 3.5 5.01871 3.5C4.74256 3.5 4.51871 3.72386 4.51871 4V7.85003H3.01865C2.79774 7.85003 2.61865 8.02912 2.61865 8.25003C2.61865 8.47094 2.79774 8.65003 3.01865 8.65003H4.51871V9.3C4.51871 11.233 6.08571 12.8 8.01871 12.8C9.9517 12.8 11.5187 11.233 11.5187 9.3V8.65003H13.0187C13.2396 8.65003 13.4187 8.47094 13.4187 8.25003C13.4187 8.02912 13.2396 7.85003 13.0187 7.85003H11.5187V4C11.5187 3.72386 11.2948 3.5 11.0187 3.5C10.7426 3.5 10.5187 3.72386 10.5187 4V7.85003H5.51871V4ZM5.51871 8.65003V9.3C5.51871 10.6807 6.638 11.8 8.01871 11.8C9.39942 11.8 10.5187 10.6807 10.5187 9.3V8.65003H5.51871Z" fill="black"/>
</svg>
