<svg width="15" height="16" viewBox="0 0 15 16" fill="none" xmlns="http://www.w3.org/2000/svg">
<path fill-rule="evenodd" clip-rule="evenodd" d="M4.85355 2.89645C5.04882 3.09171 5.04882 3.40829 4.85355 3.60355L3.70711 4.75H9C11.4853 4.75 13.5 6.76472 13.5 9.25C13.5 11.7353 11.4853 13.75 9 13.75H5C4.72386 13.75 4.5 13.5261 4.5 13.25C4.5 12.9739 4.72386 12.75 5 12.75H9C10.933 12.75 12.5 11.183 12.5 9.25C12.5 7.317 10.933 5.75 9 5.75H3.70711L4.85355 6.89645C5.04882 7.09171 5.04882 7.40829 4.85355 7.60355C4.65829 7.79882 4.34171 7.79882 4.14645 7.60355L2.14645 5.60355C1.95118 5.40829 1.95118 5.09171 2.14645 4.89645L4.14645 2.89645C4.34171 2.70118 4.65829 2.70118 4.85355 2.89645Z" fill="black"/>
</svg>
